<?xml version="1.0" encoding="UTF-8"?>
<svg xmlns="http://www.w3.org/2000/svg" xmlns:xlink="http://www.w3.org/1999/xlink" width="24pt" height="24pt" viewBox="0 0 24 24" version="1.1">
<g id="surface1">
<path style=" stroke:none;fill-rule:nonzero;fill:rgb(0%,0%,0%);fill-opacity:1;" d="M 18.578125 12.785156 C 18.921875 12.332031 19.269531 11.945312 19.542969 11.507812 C 20.265625 10.347656 21.402344 8.5 21.664062 7.988281 C 21.800781 7.71875 21.996094 7.523438 22.121094 7.511719 C 22.242188 7.5 22.402344 7.496094 22.535156 7.578125 C 22.667969 7.664062 22.773438 7.867188 22.679688 8.261719 C 22.585938 8.65625 22.53125 8.800781 22.402344 9.105469 C 21.640625 10.769531 20.523438 12.203125 19.351562 13.589844 C 19.132812 13.851562 19.121094 14.042969 19.246094 14.339844 C 19.773438 15.601562 20.269531 16.878906 20.796875 18.144531 C 20.972656 18.566406 21.1875 18.96875 21.402344 19.371094 C 21.621094 19.777344 21.777344 19.992188 22.4375 19.984375 C 22.710938 19.984375 23.230469 19.910156 23.273438 20.304688 C 23.320312 20.738281 22.796875 20.800781 22.484375 20.867188 C 22.132812 20.9375 21.953125 20.964844 21.59375 20.964844 C 20.761719 20.96875 19.78125 20.648438 19.375 19.910156 C 18.957031 19.15625 18.730469 18.605469 18.347656 17.570312 C 18.097656 16.894531 17.816406 16.226562 17.523438 15.472656 C 17.355469 15.648438 17.199219 15.773438 17.097656 15.933594 C 15.839844 17.640625 15.109375 19.019531 14.542969 19.988281 C 14.101562 20.753906 14.0625 21.089844 13.535156 20.980469 C 13.054688 20.78125 13.191406 20.136719 13.230469 19.972656 C 13.453125 19.007812 14.160156 18.0625 14.710938 17.230469 C 15.328125 16.300781 16.082031 15.460938 16.757812 14.570312 C 16.859375 14.4375 16.925781 14.1875 16.871094 14.046875 C 16.265625 12.558594 15.636719 11.082031 15.003906 9.601562 C 14.660156 8.871094 14.429688 8.40625 13.078125 8.453125 C 12.855469 8.433594 12.71875 8.375 12.722656 8.117188 C 12.722656 7.804688 12.933594 7.695312 13.089844 7.648438 C 14.613281 7.195312 16.148438 7.328125 16.941406 9.035156 C 17.433594 10.089844 17.867188 11.171875 18.328125 12.242188 C 18.398438 12.398438 18.472656 12.554688 18.578125 12.785156 Z M 0.722656 16.707031 C 1.078125 16.441406 1.324219 16.1875 1.464844 15.949219 C 1.605469 15.707031 1.675781 15.414062 1.675781 15.074219 L 1.675781 4.75 C 1.675781 4.457031 1.613281 4.171875 1.496094 3.894531 C 1.414062 3.765625 1.335938 3.644531 1.257812 3.53125 C 1.175781 3.417969 1.03125 3.242188 0.820312 3 L 5.535156 3 C 7.066406 3 8.269531 3.3125 9.136719 3.929688 C 10.003906 4.554688 10.4375 5.414062 10.4375 6.515625 C 10.4375 7.378906 10.148438 8.101562 9.566406 8.683594 C 9.234375 9.015625 8.910156 9.253906 8.59375 9.40625 C 8.277344 9.558594 7.777344 9.71875 7.09375 9.882812 L 8.367188 11.574219 C 8.632812 11.929688 8.992188 12.367188 9.449219 12.886719 C 9.957031 13.457031 10.503906 14.039062 11.085938 14.636719 C 11.605469 15.179688 12.015625 15.578125 12.3125 15.824219 C 12.609375 16.070312 13.0625 16.367188 13.671875 16.707031 L 10.589844 16.707031 C 10.085938 16.707031 9.539062 16.417969 8.957031 15.832031 C 8.273438 15.136719 7.574219 14.28125 6.863281 13.265625 C 6.382812 12.621094 5.957031 12.023438 5.589844 11.480469 C 5.300781 11.050781 4.878906 10.394531 4.335938 9.519531 C 6.71875 9.191406 7.910156 8.265625 7.910156 6.746094 C 7.910156 5.324219 6.902344 4.617188 4.886719 4.617188 L 4.125 4.617188 L 4.125 15.03125 C 4.125 15.402344 4.195312 15.699219 4.328125 15.925781 C 4.460938 16.15625 4.714844 16.417969 5.097656 16.707031 Z M 0.722656 16.707031 "/>
</g>
</svg>
