<?xml version="1.0" encoding="UTF-8"?>
<svg xmlns="http://www.w3.org/2000/svg" xmlns:xlink="http://www.w3.org/1999/xlink" width="24pt" height="24pt" viewBox="0 0 24 24" version="1.1">
<g id="surface1">
<path style=" stroke:none;fill-rule:nonzero;fill:rgb(0%,0%,0%);fill-opacity:1;" d="M 7.007812 6.492188 L 3 9 L 5.746094 9.015625 L 8.492188 9.027344 L 8.433594 9.175781 C 8.332031 9.414062 8.351562 10.640625 8.464844 11.042969 C 8.832031 12.371094 9.992188 13.167969 11.574219 13.167969 L 12 13.167969 L 12 14.207031 L 12.210938 14.414062 C 12.386719 14.585938 12.53125 14.863281 12.53125 15.03125 C 12.53125 15.046875 12.25 15.078125 11.910156 15.09375 C 9.0625 15.246094 7.488281 16.359375 7.488281 18.210938 C 7.488281 19.347656 8.042969 20.226562 9.089844 20.730469 C 11.273438 21.78125 14.648438 21.292969 15.882812 19.742188 C 16.667969 18.753906 16.851562 17.234375 16.320312 16.179688 C 16.039062 15.632812 15.652344 15.203125 14.734375 14.433594 C 14.132812 13.921875 13.992188 13.773438 13.890625 13.527344 C 13.734375 13.164062 13.792969 13.054688 14.679688 12.1875 C 15.550781 11.332031 15.738281 11.050781 15.871094 10.417969 C 15.945312 10.0625 15.945312 9.054688 15.871094 8.601562 C 15.8125 8.21875 15.601562 7.699219 15.445312 7.566406 C 15.355469 7.480469 15.394531 7.445312 16.179688 6.867188 C 16.636719 6.53125 17.117188 6.167969 17.25 6.070312 L 17.496094 5.882812 L 17.511719 6.976562 L 17.523438 8.070312 L 17.316406 8.277344 C 17.027344 8.566406 16.976562 8.789062 17 9.636719 C 17.019531 10.246094 17.035156 10.347656 17.140625 10.527344 C 17.433594 10.992188 18.070312 11.132812 18.535156 10.835938 C 18.902344 10.609375 18.976562 10.40625 19 9.605469 C 19.019531 8.789062 18.964844 8.558594 18.683594 8.277344 L 18.476562 8.070312 L 18.476562 5.15625 L 19.222656 4.59375 C 19.628906 4.285156 19.964844 4.019531 19.964844 4.007812 C 19.964844 3.992188 17.953125 3.980469 15.492188 3.980469 L 11.019531 3.988281 Z M 12.492188 7.246094 C 13.113281 7.554688 13.726562 8.390625 13.9375 9.210938 C 14.191406 10.207031 14.027344 11.246094 13.527344 11.808594 C 12.765625 12.679688 11.554688 12.453125 10.769531 11.300781 C 10.238281 10.511719 10.035156 9.519531 10.222656 8.640625 C 10.375 7.90625 10.703125 7.414062 11.175781 7.183594 C 11.546875 7.007812 12.058594 7.03125 12.492188 7.246094 Z M 13.355469 15.796875 C 14.066406 15.980469 14.761719 16.460938 15.0625 16.976562 C 15.507812 17.738281 15.351562 18.601562 14.628906 19.304688 C 13.421875 20.492188 11 20.554688 9.808594 19.445312 C 9.476562 19.132812 9.324219 18.890625 9.207031 18.503906 C 8.910156 17.480469 9.710938 16.359375 11.058594 15.902344 C 11.289062 15.828125 11.613281 15.742188 11.777344 15.71875 C 12.175781 15.652344 12.957031 15.695312 13.355469 15.796875 Z M 13.355469 15.796875 "/>
</g>
</svg>
